<svg xmlns="http://www.w3.org/2000/svg" width="1200" height="630" viewBox="0 0 1200 630">
    <!-- Background -->
    <rect width="1200" height="630" fill="#8bca4b"/>
    
    <!-- Decorative elements -->
    <circle cx="600" cy="315" r="250" fill="#2c4870" opacity="0.1"/>
    <circle cx="600" cy="315" r="200" fill="#2c4870" opacity="0.15"/>
    
    <!-- Pigeon silhouette -->
    <g transform="translate(500,265) scale(2)">
        <!-- Basic pigeon shape -->
        <path d="M50,25 C70,25 85,40 85,60 C85,80 70,95 50,95 C30,95 15,80 15,60 C15,40 30,25 50,25" 
              fill="#c5c5c5" stroke="#2c4870" stroke-width="3"/>
        <!-- Head -->
        <circle cx="35" cy="45" r="15" fill="#c5c5c5" stroke="#2c4870" stroke-width="3"/>
        <!-- Eye -->
        <circle cx="32" cy="42" r="3" fill="#2c4870"/>
        <!-- Beak -->
        <path d="M25,45 L15,48 L25,51" fill="none" stroke="#2c4870" stroke-width="3" stroke-linecap="round"/>
        <!-- Wing -->
        <path d="M50,45 C60,45 65,55 65,65 C65,75 60,85 50,85" 
              fill="none" stroke="#2c4870" stroke-width="3"/>
        <!-- Top hat -->
        <rect x="25" y="20" width="20" height="15" fill="#2c4870"/>
        <rect x="20" y="32" width="30" height="3" fill="#2c4870"/>
    </g>
    
    <!-- Text -->
    <text x="600" y="100" 
          font-family="'Press Start 2P', monospace" 
          font-size="48" 
          fill="#2c4870" 
          text-anchor="middle">
        The Boring Pigeon
    </text>
    
    <!-- Subtitle -->
    <text x="600" y="520" 
          font-family="'Press Start 2P', monospace" 
          font-size="24" 
          fill="#2c4870" 
          text-anchor="middle">
        A fully autonomous AI virtual pet
    </text>
    
    <!-- Emoji decorations -->
    <text x="300" y="315" font-size="40" text-anchor="middle">🌞</text>
    <text x="900" y="315" font-size="40" text-anchor="middle">🎮</text>
    <text x="600" y="565" font-size="40" text-anchor="middle">✨</text>
</svg>
