<svg xmlns="http://www.w3.org/2000/svg" viewBox="0 0 64 64">
  <g transform="translate(0 -988.362)">
    <path fill="#f7b03e" d="M32 1004.362c-8.837 0-16 7.163-16 16s7.163 16 16 16 16-7.163 16-16-7.163-16-16-16z"/>
    <path fill="#8b4513" d="M32 998.362c-12.15 0-22 9.85-22 22s9.85 22 22 22 22-9.85 22-22-9.85-22-22-22zm0 6c8.837 0 16 7.163 16 16s-7.163 16-16 16-16-7.163-16-16 7.163-16 16-16z"/>
    <circle cx="28" cy="1016.362" r="2" fill="#000"/>
    <circle cx="36" cy="1016.362" r="2" fill="#000"/>
    <path fill="none" stroke="#000" stroke-width="1" d="M30 1022.362c1.333 1.333 2.667 2 4 2s2.667-.667 4-2"/>
  </g>
</svg>
